<svg xmlns="http://www.w3.org/2000/svg" viewBox="0 0 176 176" role="img" aria-labelledby="title desc">
  <title id="title">Sitcheck Logo</title>
  <desc id="desc">Abstraktes Stuhl-Icon auf blauem Hintergrund</desc>
  <defs>
    <linearGradient id="bg" x1="24" y1="18" x2="152" y2="158" gradientUnits="userSpaceOnUse">
      <stop offset="0" stop-color="#bce4fe" />
      <stop offset="1" stop-color="#8bc6ec" />
    </linearGradient>
    <filter id="shadow" x="-20%" y="-20%" width="140%" height="140%">
      <feDropShadow dx="0" dy="10" stdDeviation="12" flood-color="#6baed8" flood-opacity="0.18" />
    </filter>
  </defs>
  <rect width="176" height="176" rx="40" fill="url(#bg)" />
  <g filter="url(#shadow)">
    <circle cx="88" cy="88" r="58" fill="#ffffff" />
  </g>
  <path
    d="M65 55.5c6.5-8 37.5-11.5 62-7.5 10.5 1.8 16.5 6.1 17.5 13.4l-8.9 43.1c-1.4 6.7-7.4 11.2-14.1 10.5-22.4-2.6-34.6-2.6-57.1 0-6.7.7-12.7-3.8-14.1-10.5l-8.9-43.1c1.1-2.6 2.4-4.4 5.6-5.9Z"
    fill="#17354a"
  />
  <ellipse cx="88" cy="122" rx="34" ry="14.5" fill="#17354a" />
  <path d="M69 127.5h8.7l-9.3 36.5h-9.4Z" fill="#17354a" />
  <path d="M84.3 127.5h8.7l3.6 36.5h-9Z" fill="#17354a" />
  <path d="M100 127.5h8.7l10.1 36.5h-9.3Z" fill="#17354a" />
  <path
    d="M137 52.5c10.1 12.8 16 28.9 16 46.4 0 13.6-3.5 26.3-9.6 37.4 4.2-22 1.2-42.5-6.4-59.8-3.4-7.8-7.4-15.5-11.8-23.5 4.9 4 8.8 8 11.8 11.5Z"
    fill="#ffffff"
    opacity="0.98"
  />
</svg>
